HIERARCHY
ROOT Hips
{
	OFFSET 0.00000 0.00000 0.00000
	CHANNELS 6 Xposition Yposition Zposition Zrotation Yrotation Xrotation 
	JOINT LHipJoint
	{
		OFFSET 0 0 0
		CHANNELS 3 Zrotation Yrotation Xrotation
		JOINT LeftHip
		{
			OFFSET 1.37590 -1.78394 0.89329
			CHANNELS 3 Zrotation Yrotation Xrotation
			JOINT LeftKnee
			{
				OFFSET 2.47928 -6.81178 0.00000
				CHANNELS 3 Zrotation Yrotation Xrotation
				JOINT LeftAnkle
				{
					OFFSET 2.63345 -7.23535 0.00000
					CHANNELS 3 Zrotation Yrotation Xrotation
					JOINT LeftToe
					{
						OFFSET 0.23938 -0.65768 2.27012
						CHANNELS 3 Zrotation Yrotation Xrotation
						End Site
						{
							OFFSET 0.00000 -0.00000 1.18363
						}
					}
				}
			}
		}
	}
	JOINT RHipJoint
	{
		OFFSET 0 0 0
		CHANNELS 3 Zrotation Yrotation Xrotation
		JOINT RightHip
		{
			OFFSET -1.33617 -1.78394 0.89329
			CHANNELS 3 Zrotation Yrotation Xrotation
			JOINT RightKnee
			{
				OFFSET -2.56922 -7.05888 0.00000
				CHANNELS 3 Zrotation Yrotation Xrotation
				JOINT RightAnkle
				{
					OFFSET -2.56568 -7.04915 0.00000
					CHANNELS 3 Zrotation Yrotation Xrotation
					JOINT RightToe
					{
						OFFSET -0.27533 -0.75646 2.18105
						CHANNELS 3 Zrotation Yrotation Xrotation
						End Site
						{
							OFFSET -0.00000 -0.00000 1.15233
						}
					}
				}
			}
		}
	}
	JOINT lowerback
	{
		OFFSET 0 0 0
		CHANNELS 3 Zrotation Yrotation Xrotation
		JOINT Chest
		{
			OFFSET 0.06190 2.15152 -0.00935
			CHANNELS 3 Zrotation Yrotation Xrotation
			JOINT Chest2
			{
				OFFSET 0.06334 2.15332 0.00872
				CHANNELS 3 Zrotation Yrotation Xrotation
				JOINT lowerneck
				{
					OFFSET 0 0 0
					CHANNELS 3 Zrotation Yrotation Xrotation
					JOINT Neck
					{
						OFFSET -0.04202 1.66908 0.23524
						CHANNELS 3 Zrotation Yrotation Xrotation
						JOINT Head
						{
							OFFSET 0.07510 1.69357 -0.24440
							CHANNELS 3 Zrotation Yrotation Xrotation
							End Site
							{
								OFFSET 0.02556 1.71719 -0.11000
							}
						}
					}
				}
				JOINT LeftCollar
				{
					OFFSET 0 0 0
					CHANNELS 3 Zrotation Yrotation Xrotation
					JOINT LeftShoulder
					{
						OFFSET 3.67168 1.26306 -0.41342
CHANNELS 3 Zrotation Xrotation Yrotation
						JOINT LeftElbow
						{
OFFSET 0 -4.685100 -0.000000
CHANNELS 3 Zrotation Xrotation Yrotation
							JOINT LeftWrist
							{
OFFSET 0 -3.396260 -0.000000
CHANNELS 3 Zrotation Xrotation Yrotation
								JOINT lhand
								{
									OFFSET 0 0 0
CHANNELS 3 Zrotation Xrotation Yrotation
									JOINT LFingers
									{
OFFSET 0 -0.486080 -0.000000
CHANNELS 3 Zrotation Xrotation Yrotation
										End Site
										{
OFFSET 0 -0.391890 -0.000000
										}
									}
								}
								JOINT LThumb
								{
OFFSET 0 0.000000 0.000000
CHANNELS 3 Zrotation Xrotation Yrotation
									End Site
									{
OFFSET 0 -0.397870 0.397870
									}
								}
							}
						}
					}
				}
				JOINT RightCollar
				{
					OFFSET 0 0 0
					CHANNELS 3 Zrotation Yrotation Xrotation
					JOINT RightShoulder
					{
						OFFSET -3.04136 1.42992 -0.76390
CHANNELS 3 Zrotation Xrotation Yrotation
						JOINT RightElbow
						{
OFFSET 0 -5.555760 -0.000000
CHANNELS 3 Zrotation Xrotation Yrotation
							JOINT RightWrist
							{
OFFSET 0 -3.327740 -0.000000
CHANNELS 3 Zrotation Xrotation Yrotation
								JOINT rhand
								{
									OFFSET 0 0 0
CHANNELS 3 Zrotation Xrotation Yrotation
									JOINT RFingers
									{
OFFSET 0 -0.507630 -0.000000
CHANNELS 3 Zrotation Xrotation Yrotation
										End Site
										{
OFFSET 0 -0.409260 -0.000000
										}
									}
								}
								JOINT RThumb
								{
OFFSET 0 0.000000 0.000000
CHANNELS 3 Zrotation Xrotation Yrotation
									End Site
									{
OFFSET 0 -0.415510 0.415510
									}
								}
							}
						}
					}
				}
			}
		}
	}
}
MOTION
Frames: 11
Frame Time: 0.008333333333333333
41.242400 17.824700 5.138000 -121.678000 -83.749300 131.015000 0.000000 0.000000 0.000000 -13.524800 -5.186800 -9.923600 0.791200 5.678200 15.853400 0.346300 1.421900 -11.726300 0.000000 0.043200 0.118700 0.000000 0.000000 0.000000 27.545500 5.367400 -10.283000 -0.828600 -5.807400 16.226600 -0.048700 -8.348400 -12.812200 -0.320000 -3.636000 10.054900 5.004400 -1.248800 -4.351900 4.060800 -2.042400 -1.452500 1.271200 -1.068700 0.922200 -14.449700 -10.862800 -9.960200 8.337000 -13.830800 12.751000 3.562600 -6.799500 7.124700 -0.000000 0.000000 0.000000 -1.303900 2.131000 1.220400 17.836800 -27.947700 4.472500 4.134300 -8.074800 -26.408400 0.000000 0.000000 0.000000 -7.125000 0.000000 0.000000 -27.060800 54.320300 6.562500 -0.000000 0.000000 0.000000 -5.490800 -8.533800 12.298200 -12.968600 -21.241200 -2.441900 0.389100 -19.763600 42.097600 0.000000 0.000000 0.000000 7.125000 0.000000 -0.000000 48.586600 65.710100 -27.016300
41.236691 17.826880 5.133320 -121.781831 -83.734072 131.088578 0.000000 0.000000 0.000000 -13.513428 -5.107892 -9.864402 0.786269 5.660618 15.802885 0.343845 1.489996 -11.721425 0.000252 0.092174 0.253276 0.000000 0.000000 0.000000 27.567765 5.318414 -10.134726 -0.811626 -5.749146 16.058407 -0.049935 -8.289440 -12.757649 -0.327016 -3.675289 10.164896 4.912820 -1.259123 -4.243976 4.121259 -2.035917 -1.669395 1.391581 -1.073511 0.643831 -14.760169 -10.630319 -9.869083 8.872396 -13.593226 12.995436 3.815095 -6.669429 7.222206 0.000000 0.000000 0.000000 -1.457263 2.425209 1.463257 17.769268 -27.860767 4.440879 4.220036 -7.959482 -26.529210 0.000000 0.000000 0.000000 -7.125000 0.000000 0.000000 -27.060159 54.443245 6.646227 0.000000 0.000000 0.000000 -5.590696 -8.071306 12.439135 -12.986657 -21.267691 -2.448470 0.180316 -19.525860 42.401263 0.000000 0.000000 0.000000 7.125000 0.000000 0.000000 48.903448 65.972211 -27.510587
41.232076 17.829129 5.128540 -121.824730 -83.743808 131.113539 0.000000 0.000000 0.000000 -13.520527 -5.069085 -9.804875 0.778921 5.634807 15.728339 0.338430 1.572752 -11.675660 0.000303 0.109468 0.300813 0.000000 0.000000 0.000000 27.568238 5.282355 -10.008116 -0.795600 -5.693309 15.897202 -0.051494 -8.253443 -12.737457 -0.334170 -3.715081 10.276272 4.786111 -1.316088 -3.920864 4.218062 -2.065981 -2.061798 1.576886 -1.103536 0.066600 -14.720630 -10.650299 -9.357455 8.125967 -13.589827 13.061415 3.592270 -6.737087 7.098499 0.000000 0.000000 0.000000 -1.705699 3.037949 1.767668 17.765305 -27.855638 4.439055 4.342642 -7.893662 -26.703033 0.000000 0.000000 0.000000 -7.125000 0.000000 0.000000 -27.060650 54.620082 6.767052 0.000000 0.000000 0.000000 -5.761311 -7.378825 12.751290 -13.005480 -21.295231 -2.455283 -0.039576 -19.246516 42.783071 0.000000 0.000000 0.000000 7.125000 0.000000 0.000000 49.352773 66.288130 -28.154991
41.227095 17.830438 5.125167 -121.725985 -83.747757 131.015008 0.000000 0.000000 0.000000 -13.528167 -5.095596 -9.705130 0.767443 5.593986 15.610774 0.335698 1.671343 -11.683250 0.000181 0.071954 0.197741 0.000000 0.000000 0.000000 27.584809 5.266128 -9.919968 -0.784408 -5.654239 15.784454 -0.052286 -8.226621 -12.717384 -0.344733 -3.772313 10.437024 4.842583 -1.298681 -3.931518 4.168866 -2.041295 -2.124519 1.496695 -1.093211 0.004154 -14.797986 -10.466378 -9.830703 8.485571 -13.362270 13.634957 3.721231 -6.599049 7.370364 0.000000 0.000000 0.000000 -1.675933 3.024922 1.873401 17.701213 -27.772823 4.409127 4.360109 -8.069183 -26.734840 0.000000 0.000000 0.000000 -7.125000 0.000000 0.000000 -27.065496 54.651622 6.789869 0.000000 0.000000 0.000000 -5.715910 -7.257391 12.730224 -13.006816 -21.297163 -2.455752 -0.253573 -18.811760 43.294780 0.000000 0.000000 0.000000 7.125000 0.000000 0.000000 50.056277 66.683304 -29.067651
41.222760 17.831119 5.120722 -121.752720 -83.740168 131.036037 0.000000 0.000000 0.000000 -13.526904 -5.109403 -9.583555 0.752967 5.542084 15.461487 0.330982 1.788163 -11.669466 0.000525 0.141962 0.390037 0.000000 0.000000 0.000000 27.602997 5.221813 -9.827569 -0.770889 -5.606196 15.646022 -0.053171 -8.180520 -12.672092 -0.352162 -3.812903 10.550842 4.919527 -1.288134 -4.144076 4.099612 -2.047802 -2.065568 1.375060 -1.093110 0.178298 -14.743844 -10.477819 -9.985586 8.521492 -13.368325 13.645956 3.716771 -6.591434 7.400136 0.000000 0.000000 0.000000 -1.612610 2.812936 2.100325 17.616106 -27.662816 4.369524 4.216802 -8.312240 -26.693788 0.000000 0.000000 0.000000 -7.125000 0.000000 0.000000 -27.174601 54.588351 6.777121 0.000000 0.000000 0.000000 -5.627636 -7.332204 12.809754 -13.001867 -21.289917 -2.453940 -0.782420 -18.056667 43.945041 0.000000 0.000000 0.000000 7.125000 0.000000 0.000000 50.762023 67.258802 -30.185770
41.219483 17.831226 5.116420 -121.633352 -83.732748 130.929462 0.000000 0.000000 0.000000 -13.506282 -5.198276 -9.453966 0.738786 5.490802 15.314002 0.331389 1.866783 -11.719279 0.000958 0.197219 0.541867 0.000000 0.000000 0.000000 27.632234 5.226750 -9.773053 -0.762882 -5.577677 15.563879 -0.056569 -8.127274 -12.664649 -0.359421 -3.851304 10.658691 5.077999 -1.231080 -4.660205 3.951707 -2.028686 -1.774131 1.115687 -1.069347 0.756479 -14.472077 -10.539752 -10.642624 8.672842 -13.405526 13.524467 3.691395 -6.560332 7.469624 0.000000 0.000000 0.000000 -1.399021 2.209197 2.191980 17.515228 -27.531986 4.322802 4.029765 -8.541971 -26.668773 0.000000 0.000000 0.000000 -7.125000 0.000000 0.000000 -27.336009 54.531228 6.782682 0.000000 0.000000 0.000000 -5.410872 -7.784226 12.695641 -12.979261 -21.256846 -2.445764 -1.377908 -17.212848 44.429312 0.000000 0.000000 0.000000 7.125000 0.000000 0.000000 51.142989 67.747608 -30.984979
41.216243 17.830314 5.111767 -121.405229 -83.721663 130.722180 0.000000 0.000000 0.000000 -13.472892 -5.248204 -9.330760 0.720472 5.424042 15.122106 0.327095 1.953445 -11.696819 0.001029 0.209865 0.576656 0.000000 0.000000 0.000000 27.681117 5.234138 -9.701737 -0.751257 -5.535963 15.443670 -0.055086 -8.130995 -12.643151 -0.357905 -3.843489 10.636844 5.090410 -1.216092 -4.754527 3.948419 -2.015029 -1.828138 1.104517 -1.063801 0.753113 -14.527798 -10.488001 -10.441526 8.749394 -13.363478 13.440746 3.740929 -6.543688 7.412024 0.000000 0.000000 0.000000 -1.442194 2.197893 2.346212 17.482371 -27.489272 4.307645 3.889845 -8.731492 -26.626126 0.000000 0.000000 0.000000 -7.125000 0.000000 0.000000 -27.440382 54.467257 6.767539 0.000000 0.000000 0.000000 -5.429386 -7.660088 12.868856 -13.024390 -21.322870 -2.462095 -1.963884 -16.509547 44.780595 0.000000 0.000000 0.000000 7.125000 0.000000 0.000000 51.305545 68.150355 -31.534384
41.212334 17.829011 5.106584 -121.457619 -83.698707 130.788508 0.000000 0.000000 0.000000 -13.446119 -5.284729 -9.168356 0.699207 5.344833 14.894705 0.325550 2.012040 -11.704949 0.001422 0.242160 0.665341 0.000000 0.000000 0.000000 27.730996 5.312151 -9.623733 -0.744028 -5.510024 15.369162 -0.054739 -8.148642 -12.659550 -0.360128 -3.855056 10.669263 5.139666 -1.169865 -4.959799 3.891057 -1.974533 -1.742175 1.013240 -1.038480 0.953449 -14.347798 -10.491631 -10.826829 8.756218 -13.333329 13.391324 3.703532 -6.506241 7.446323 0.000000 0.000000 0.000000 -1.389479 1.905201 2.432630 17.425101 -27.414785 4.281245 3.757861 -8.832156 -26.720419 0.000000 0.000000 0.000000 -7.125000 0.000000 0.000000 -27.630555 54.525925 6.861054 0.000000 0.000000 0.000000 -5.366011 -7.784875 12.967207 -13.048336 -21.358074 -2.470888 -2.786175 -15.535294 45.286098 0.000000 0.000000 0.000000 7.125000 0.000000 0.000000 51.597423 68.723697 -32.359794
41.209610 17.827737 5.101731 -121.299785 -83.726685 130.632180 0.000000 0.000000 0.000000 -13.459440 -5.343807 -8.982397 0.675121 5.253838 14.633955 0.320884 2.080591 -11.667298 0.001589 0.257101 0.706376 0.000000 0.000000 0.000000 27.744545 5.361804 -9.524070 -0.732942 -5.469745 15.253375 -0.050924 -8.207985 -12.668400 -0.371428 -3.914680 10.836824 5.135682 -1.213650 -5.299615 3.875117 -2.059584 -1.768985 0.985764 -1.078860 1.113525 -14.430823 -10.324237 -10.364459 9.033904 -13.162567 12.874417 3.857172 -6.420356 7.203924 0.000000 0.000000 0.000000 -1.438707 1.952046 2.716350 17.390319 -27.369396 4.265233 3.697842 -8.885607 -26.798053 0.000000 0.000000 0.000000 -7.125000 0.000000 0.000000 -27.740858 54.583106 6.931821 0.000000 0.000000 0.000000 -5.349501 -7.613883 13.376405 -13.081471 -21.406525 -2.482916 -3.655700 -14.456229 45.735604 0.000000 0.000000 0.000000 7.125000 0.000000 0.000000 51.771830 69.278926 -33.077180
41.207336 17.826786 5.096443 -121.345720 -83.723494 130.691576 0.000000 0.000000 0.000000 -13.447288 -5.365012 -8.810907 0.651473 5.162850 14.373678 0.319721 2.098257 -11.658949 0.002843 0.344650 0.946993 0.000000 0.000000 0.000000 27.773082 5.406720 -9.466711 -0.726979 -5.447887 15.190490 -0.050786 -8.216623 -12.676951 -0.370558 -3.910010 10.823642 5.088761 -1.202167 -5.351270 3.881345 -2.043051 -1.849993 1.019136 -1.073075 1.061060 -14.322221 -10.261525 -10.474613 9.009536 -13.066736 12.809091 3.842020 -6.367166 7.180757 0.000000 0.000000 0.000000 -1.506635 1.973920 2.823663 17.364387 -27.335657 4.253305 3.591011 -9.000307 -26.951052 0.000000 0.000000 0.000000 -7.125000 0.000000 0.000000 -27.948383 54.697612 7.070962 0.000000 0.000000 0.000000 -5.377512 -7.452882 13.714743 -13.106546 -21.443116 -2.492113 -4.668543 -13.301334 46.273901 0.000000 0.000000 0.000000 7.125000 0.000000 0.000000 52.063815 69.935574 -33.988201
41.205641 17.826205 5.091708 -121.367753 -83.760965 130.709863 0.000000 0.000000 0.000000 -13.482861 -5.401680 -8.598307 0.624536 5.056874 14.070944 0.314426 2.173920 -11.615637 0.004100 0.413526 1.136208 0.000000 0.000000 0.000000 27.751542 5.389262 -9.411921 -0.720008 -5.422308 15.117130 -0.052395 -8.180051 -12.657877 -0.371416 -3.914467 10.836017 5.016900 -1.219056 -5.436034 3.890869 -2.065080 -1.941549 1.066901 -1.086523 1.016433 -14.242006 -10.110007 -10.448801 8.905705 -12.859065 12.819234 3.826012 -6.273236 7.141936 0.000000 0.000000 0.000000 -1.605438 2.026155 3.060672 17.316963 -27.273738 4.231534 3.497808 -9.078782 -27.033849 0.000000 0.000000 0.000000 -7.125000 0.000000 0.000000 -28.094710 54.752858 7.151645 0.000000 0.000000 0.000000 -5.433898 -7.247017 14.018090 -13.119781 -21.462493 -2.496986 -5.493428 -12.398448 46.760015 0.000000 0.000000 0.000000 7.125000 0.000000 0.000000 52.460269 70.498375 -34.881102
